<?xml version="1.0" encoding="UTF-8"?>
<svg xmlns="http://www.w3.org/2000/svg" version="1.1" xmlns:xlink="http://www.w3.org/1999/xlink" viewBox="0 0 520.44 101">
  <defs>
    <style>
      .cls-1, .cls-2 {
        fill: none;
      }

      .cls-2 {
        stroke: #000;
        stroke-miterlimit: 10;
        stroke-width: 13.07px;
      }

      .cls-3 {
        clip-path: url(#clippath);
      }
    </style>
    <clipPath id="clippath">
      <circle class="cls-1" cx="61.64" cy="47.87" r="30.07"/>
    </clipPath>
  </defs>
  <!-- Generator: Adobe Illustrator 28.6.0, SVG Export Plug-In . SVG Version: 1.2.0 Build 709)  -->
  <g>
    <g id="Layer_1">
      <g>
        <path d="M179.65,49.69c-.04,5.16-.73,10.2-2.82,14.98-2.55,5.85-6.63,10.26-12.42,13.02-4.63,2.2-9.55,2.9-14.63,2.78-3.55-.08-7.02-.6-10.36-1.83-4.92-1.81-8.92-4.82-11.9-9.17-3.11-4.53-4.59-9.62-5.1-15.03-.46-4.84-.32-9.66.75-14.41,1.79-7.95,5.85-14.29,13.18-18.24,3.81-2.05,7.93-3.03,12.23-3.27,4.61-.26,9.14.19,13.48,1.86,5.91,2.27,10.53,6.09,13.58,11.71,2.98,5.5,3.97,11.44,4.01,17.6ZM134.35,49.67c.05,3.39.35,6.84,1.56,10.15,1.18,3.23,3.08,5.92,5.98,7.83,2.62,1.72,5.56,2.32,8.63,2.4,6.85.18,12.08-3.08,14.89-9.29,1.54-3.42,2.01-7.05,2.04-10.77.04-4.25-.51-8.39-2.37-12.27-1.49-3.11-3.68-5.55-6.83-7.06-3.27-1.57-6.72-1.83-10.25-1.37-5.37.7-9.13,3.61-11.41,8.46-1.76,3.74-2.18,7.76-2.24,11.93Z"/>
        <path d="M413.44,73.48v.83c0,5.12,0,10.24,0,15.37,0,2.55-1.03,4.49-3.33,5.67-.46.23-.98.46-1.48.47-2.26.05-4.53.02-6.89.02v-.8c0-13.77-.01-27.54,0-41.31,0-3.11.27-6.2,1.26-9.19,1.34-4.08,3.99-6.92,7.81-8.83,4.84-2.42,9.92-3.57,15.3-3.08,4.36.4,8.44,1.7,11.88,4.55,1.87,1.55,3.12,3.57,4.15,5.73,2.37,5,2.92,10.31,2.59,15.75-.23,3.76-.96,7.4-2.61,10.81-2.07,4.28-5.01,7.75-9.59,9.42-5.14,1.87-10.21,1.61-14.98-1.25-1.68-1.01-2.93-2.5-3.93-4.2-.06.02-.12.04-.18.06ZM432.99,55.82c-.05-.66-.09-1.89-.26-3.1-.37-2.76-1.22-5.32-3.11-7.47-3.26-3.69-12.06-4.29-14.92,3.07-1.37,3.52-1.42,7.19-1.13,10.89.21,2.73,1.02,5.22,2.71,7.46,3.04,4.03,10.85,4.76,14.3-.62,1.9-2.96,2.38-6.24,2.41-10.22Z"/>
        <path d="M277.21,58.05v21.06h-12.13c-.02-.26-.05-.54-.05-.81,0-17.14,0-34.29-.01-51.43,0-2.76,1.04-4.9,3.57-6.09.86-.41,1.91-.58,2.88-.58,7.16-.03,14.32-.06,21.48.04,3.57.05,7,.82,10.05,2.81,3.49,2.27,5.53,5.58,6.44,9.56,1.03,4.49,1.06,9.02-.13,13.5-1.74,6.53-5.96,10.44-12.65,11.56-1.67.28-3.38.36-5.07.38-4.47.05-8.94.02-13.41.02h-.98ZM277.26,47.36c.21.02.39.06.57.06,3.68,0,7.37.02,11.05,0,1.04,0,2.09-.09,3.12-.25,2.59-.42,4.65-1.67,5.54-4.25.88-2.53.86-5.14.06-7.7-.55-1.79-1.59-3.17-3.43-3.91-1.56-.63-3.17-.85-4.82-.86-3.76-.03-7.52,0-11.29,0-.25,0-.51.02-.8.04v16.89Z"/>
        <path d="M194.08,73.43c0,1.75,0,3.49,0,5.24,0,3.68,0,7.37,0,11.05,0,3.78-2.45,6.21-6.24,6.22-1.77,0-3.54,0-5.37,0-.02-.34-.04-.62-.04-.9,0-13.77,0-27.54,0-41.32,0-3.12.27-6.19,1.24-9.19,1.33-4.09,3.99-6.92,7.8-8.84,4.84-2.42,9.92-3.58,15.3-3.09,4.25.38,8.23,1.64,11.64,4.35,1.97,1.57,3.28,3.63,4.36,5.85,1.95,4.06,2.67,8.38,2.7,12.84.03,4.81-.61,9.49-2.72,13.86-2.06,4.28-5.05,7.74-9.62,9.38-5.14,1.84-10.24,1.6-14.96-1.35-1.23-.77-2.15-2.03-3.18-3.09-.3-.31-.5-.72-.74-1.09-.05.02-.1.03-.15.05ZM194.08,56.19c.03,2.47.22,4.75.94,6.96,1.59,4.84,5.69,7.4,10.7,6.57,3.27-.54,5.37-2.64,6.53-5.6,2.06-5.25,1.96-10.59-.04-15.82-1.22-3.2-3.63-5.12-7.13-5.61-3.98-.56-7.64,1.27-9.39,4.89-1.34,2.77-1.54,5.77-1.61,8.61Z"/>
        <path d="M323.6,59.41c.13,2.84.55,5.47,2.37,7.7,1.55,1.9,3.57,2.74,5.93,2.91,2.21.16,4.34-.19,6.25-1.37.61-.37,1.16-.91,1.6-1.48.95-1.24,2.14-2.03,3.7-2.05,3.05-.05,6.11-.02,9.34-.02-.46,1.25-.81,2.47-1.34,3.61-2.89,6.27-7.93,9.74-14.62,10.88-4.25.73-8.48.57-12.59-.91-4.49-1.62-7.76-4.66-9.93-8.85-2.7-5.2-3.14-10.82-2.81-16.55.21-3.6.91-7.09,2.54-10.34,2.94-5.89,7.72-9.27,14.2-10.18,4.11-.58,8.18-.33,12.14,1.02,5.33,1.81,8.93,5.42,11.01,10.61,1.84,4.58,2.14,9.38,2.03,14.24-.02.69-.35.77-.94.77-9.3-.01-18.6-.01-27.91-.01h-.97ZM323.64,51.66h17.36c-.26-5.51-2.75-9.23-8.71-9.21-5.18.02-8.8,3.85-8.64,9.21Z"/>
        <path d="M474.45,59.41c.08,3.22.69,6.14,3.04,8.45,1.16,1.14,2.57,1.78,4.15,2.03,2.52.4,4.97.16,7.2-1.16.68-.4,1.29-.99,1.78-1.61.94-1.17,2.08-1.96,3.57-1.98,3.08-.06,6.16-.02,9.43-.02-.46,1.24-.82,2.46-1.35,3.6-2.89,6.28-7.93,9.74-14.62,10.88-4.22.72-8.43.57-12.52-.89-4.56-1.62-7.84-4.7-10.05-8.94-2.28-4.37-2.87-9.12-2.86-13.97,0-3.84.46-7.62,1.9-11.2,2.77-6.85,7.8-10.88,15.16-11.85,3.98-.53,7.92-.28,11.76.99,5.37,1.78,9.03,5.38,11.14,10.58,1.86,4.6,2.17,9.43,2.06,14.32-.01.66-.33.78-.93.78-9.3-.02-18.6-.01-27.9-.01-.31,0-.61,0-.97,0ZM491.84,51.67c-.3-5.83-3.03-9.61-9.56-9.18-5.12.33-7.97,4.64-7.73,9.18h17.3Z"/>
        <path d="M398.98,56.07c0,4.3-.58,8.49-2.33,12.45-2.39,5.41-6.32,9.01-12.12,10.55-5.56,1.48-10.97,1.1-16.24-1.14-5.09-2.17-8.32-6.01-9.83-11.29-1.65-5.79-2-11.66-.83-17.59.94-4.76,2.84-8.99,6.64-12.19,2.63-2.21,5.66-3.51,9.03-4.03,4-.61,7.97-.56,11.87.63,5.11,1.55,8.73,4.85,11.05,9.63,1.99,4.11,2.75,8.46,2.76,12.98ZM368.61,56.48c.04,2.01.35,4.95,1.23,7.83,1.41,4.6,5.55,6.32,9.2,5.9,3.25-.37,5.46-2.42,6.62-5.26,2.17-5.33,2.26-10.85.5-16.33-.71-2.21-2.21-3.98-4.25-5.15-3.65-2.1-9.83-.63-11.78,3.94-1.11,2.61-1.55,5.29-1.51,9.07Z"/>
        <path d="M228.07,20.23c2.42,0,4.75-.15,7.06.04,2.48.21,4.63,2.73,4.72,5.31.08,2.35.03,4.7.04,7.06,0,.31,0,.62,0,1.03h7.02c.03,2.2.26,4.32-1.24,6.13-1.5,1.8-3.51,2.21-5.78,2.14v.92c0,7.97,0,15.94,0,23.91,0,2.45.95,3.42,3.4,3.45,1.17.02,2.35,0,3.59,0v8.9c-.87.05-1.75.15-2.63.13-3.44-.11-6.89-.16-10.33-.43-2.89-.23-4.97-2.26-5.48-5.1-.22-1.2-.34-2.43-.34-3.65-.02-16.33-.01-32.67-.01-49v-.84Z"/>
        <path d="M447.47,20.23c2.41,0,4.8-.16,7.15.04,2.6.23,4.57,2.52,4.77,5.14.02.31.02.63.02.94,0,17.29,0,34.59,0,51.88v.88h-11.95V20.23Z"/>
        <path d="M249.91,79.11v-45.43c2.5,0,4.99-.21,7.43.06,2.47.28,4.32,2.66,4.49,5.14.03.39.05.78.05,1.17,0,12.7,0,25.39,0,38.09v.97h-11.97Z"/>
        <path d="M261.84,29.54h-11.91v-9.29c2.43,0,4.84-.19,7.21.05,2.56.26,4.55,2.66,4.69,5.23.07,1.32.01,2.65.01,4.01Z"/>
      </g>
    </g>
    <g id="Layer_4">
      <g>
        <g class="cls-3">
          <path d="M32.38,40.21s7.68-9.23,14.82,6.55c6.55,14.48,10.77,1.72,10.77,1.72l2.15-6.03,30.93.09h8.53v7.19l-36.06.13s-6.12,21.89-17.28,9.91c0,0-7.84-9-11.72-6.2-3.49,2.52,1.21,11.98,5.51,15.42l-6.38,6.38s-14.3-21.63-1.29-35.16Z"/>
        </g>
        <circle class="cls-2" cx="61.64" cy="47.87" r="36.36"/>
      </g>
    </g>
  </g>
</svg>